# 3ds Max Wavefront OBJ Exporter v0.97b - (c)2007 guruware
# File Created: 09.11.2015 18:20:33

mtllib Door_Arch.mtl

#
# object Wall_043
#

v  97.5287 96.0180 169.4969
v  97.5287 -2.4072 169.4969
v  89.1566 -2.4072 169.4969
v  89.1566 96.0180 169.4969
v  139.3891 96.0180 169.4969
v  139.3891 53.1884 169.4969
v  122.6450 63.0972 169.4969
v  122.6450 96.0180 169.4969
v  105.9008 53.1884 169.4969
v  105.9008 96.0180 169.4969
v  147.7612 96.0180 169.4969
v  147.7612 -2.4072 169.4969
v  156.1333 96.0180 169.4969
v  156.1333 -2.4072 169.4969
v  89.1566 -2.4072 223.9181
v  97.5287 -2.4072 223.9181
v  97.5287 96.0180 223.9181
v  89.1566 96.0180 223.9181
v  122.6450 63.0972 223.9181
v  139.3891 53.1884 223.9181
v  139.3891 96.0180 223.9181
v  122.6450 96.0180 223.9181
v  105.9008 53.1884 223.9181
v  105.9008 96.0180 223.9181
v  147.7612 -2.4072 223.9181
v  147.7612 96.0180 223.9181
v  156.1333 -2.4072 223.9181
v  156.1333 96.0180 223.9181
# 28 vertices

vn -0.0000 0.0000 -1.0000
vn 0.0000 -0.0000 1.0000
vn -0.0000 -1.0000 -0.0000
vn -1.0000 0.0000 0.0000
vn 0.0000 1.0000 -0.0000
vn -0.4496 -0.8932 0.0000
vn 0.4496 -0.8932 -0.0000
vn -0.9847 -0.1743 0.0000
vn 0.9847 -0.1743 -0.0000
vn 1.0000 -0.0000 -0.0000
# 10 vertex normals

vt 0.0000 0.8750 0.0000
vt 1.0000 0.8750 0.0000
vt 1.0000 1.0000 0.0000
vt 0.0000 1.0000 0.0000
vt 0.0000 0.2500 0.0000
vt 1.0000 0.2500 0.0000
vt 1.0000 0.5000 0.0000
vt 0.0000 0.5000 0.0000
vt 1.0000 0.7500 0.0000
vt 0.0000 0.7500 0.0000
vt 0.0000 0.1250 0.0000
vt 1.0000 0.1250 0.0000
vt 0.0000 0.0000 0.0000
vt 1.0000 0.0000 0.0000
# 14 texture coords

g Wall_043
usemtl wire_008110135
s 1
f 1/1/1 2/2/1 3/3/1 4/4/1 
f 5/5/1 6/6/1 7/7/1 8/8/1 
f 8/8/1 7/7/1 9/9/1 10/10/1 
f 11/11/1 12/12/1 6/6/1 5/5/1 
f 10/10/1 9/9/1 2/2/1 1/1/1 
f 13/13/1 14/14/1 12/12/1 11/11/1 
f 15/3/2 16/2/2 17/1/2 18/4/2 
f 19/7/2 20/6/2 21/5/2 22/8/2 
f 23/9/2 19/7/2 22/8/2 24/10/2 
f 20/6/2 25/12/2 26/11/2 21/5/2 
f 16/2/2 23/9/2 24/10/2 17/1/2 
f 25/12/2 27/14/2 28/13/2 26/11/2 
s 2
f 3/3/3 2/2/3 16/2/3 15/3/3 
s 4
f 4/4/4 3/3/4 15/3/4 18/4/4 
s 2
f 1/1/5 4/4/5 18/4/5 17/1/5 
f 7/7/6 6/6/6 20/6/6 19/7/6 
f 5/5/5 8/8/5 22/8/5 21/5/5 
s 4
f 9/9/7 7/7/7 19/7/7 23/9/7 
s 2
f 8/8/5 10/10/5 24/10/5 22/8/5 
s 4
f 6/6/8 12/12/8 25/12/8 20/6/8 
s 2
f 11/11/5 5/5/5 21/5/5 26/11/5 
s 8
f 2/2/9 9/9/9 23/9/9 16/2/9 
s 2
f 10/10/5 1/1/5 17/1/5 24/10/5 
s 4
f 14/14/10 13/13/10 28/13/10 27/14/10 
s 2
f 12/12/3 14/14/3 27/14/3 25/12/3 
f 13/13/5 11/11/5 26/11/5 28/13/5 
# 26 polygons

