# 3ds Max Wavefront OBJ Exporter v0.97b - (c)2007 guruware
# File Created: 16.11.2015 15:57:09

mtllib Square_Snake_Room.mtl

#
# object Box001
#

v  -50.1448 0.0000 -196.8504
v  50.1448 0.0000 -196.8504
v  50.1448 0.0000 196.8504
v  -50.1448 0.0000 196.8504
v  -50.1448 275.5905 -196.8504
v  -50.1448 275.5905 196.8504
v  50.1448 275.5905 196.8504
v  50.1448 275.5905 -196.8504
# 8 vertices

vn 0.0000 -1.0000 -0.0000
vn 0.0000 1.0000 -0.0000
vn -1.0000 0.0000 -0.0000
vn -0.0000 0.0000 1.0000
vn 1.0000 0.0000 0.0000
vn 0.0000 0.0000 -1.0000
# 6 vertex normals

vt 1.0000 0.0000 0.0000
vt 1.0000 1.0000 0.0000
vt 0.0000 1.0000 0.0000
vt 0.0000 0.0000 0.0000
# 4 texture coords

g Box001
usemtl wire_006135006
s 2
f 1/1/1 2/2/1 3/3/1 4/4/1 
s 4
f 5/4/2 6/1/2 7/2/2 8/3/2 
s 8
f 1/4/3 4/1/3 6/2/3 5/3/3 
s 16
f 4/4/4 3/1/4 7/2/4 6/3/4 
s 32
f 3/4/5 2/1/5 8/2/5 7/3/5 
s 64
f 2/4/6 1/1/6 5/2/6 8/3/6 
# 6 polygons

#
# object Plane001
#

v  -787.4014 0.0000 -787.4017
v  -787.4014 0.0000 787.4014
v  787.4017 0.0000 787.4014
v  787.4017 0.0000 -787.4017
# 4 vertices

vn 0.0000 1.0000 -0.0000
# 1 vertex normals

vt 0.0000 1.0000 0.0000
vt 0.0000 0.0000 0.0000
vt 1.0000 0.0000 0.0000
vt 1.0000 1.0000 0.0000
# 4 texture coords

g Plane001
usemtl wire_086086086
s 1
f 9/5/7 10/6/7 11/7/7 12/8/7 
# 1 polygons

#
# object Box004
#

v  118.1102 0.0000 -787.4016
v  118.1102 0.0000 -807.0866
v  787.4016 0.0000 -807.0866
v  787.4016 0.0000 -787.4016
v  118.1102 275.5905 -787.4016
v  787.4016 275.5905 -787.4016
v  787.4016 275.5905 -807.0866
v  118.1102 275.5905 -807.0866
# 8 vertices

vn 0.0000 -1.0000 -0.0000
vn 0.0000 1.0000 -0.0000
vn 0.0000 0.0000 1.0000
vn 1.0000 0.0000 -0.0000
vn 0.0000 0.0000 -1.0000
vn -1.0000 0.0000 -0.0000
# 6 vertex normals

vt 1.0000 0.0000 0.0000
vt 1.0000 1.0000 0.0000
vt 0.0000 1.0000 0.0000
vt 0.0000 0.0000 0.0000
# 4 texture coords

g Box004
usemtl wire_135006006
s 2
f 13/9/8 14/10/8 15/11/8 16/12/8 
s 4
f 17/12/9 18/9/9 19/10/9 20/11/9 
s 8
f 13/12/10 16/9/10 18/10/10 17/11/10 
s 16
f 16/12/11 15/9/11 19/10/11 18/11/11 
s 32
f 15/12/12 14/9/12 20/10/12 19/11/12 
s 64
f 14/12/13 13/9/13 17/10/13 20/11/13 
# 6 polygons

#
# object Box005
#

v  -787.4016 0.0000 -787.4016
v  -787.4016 0.0000 -807.0866
v  -118.1102 0.0000 -807.0866
v  -118.1102 0.0000 -787.4016
v  -787.4016 275.5905 -787.4016
v  -118.1102 275.5905 -787.4016
v  -118.1102 275.5905 -807.0866
v  -787.4016 275.5905 -807.0866
# 8 vertices

vn 0.0000 -1.0000 -0.0000
vn 0.0000 1.0000 -0.0000
vn 0.0000 0.0000 1.0000
vn 1.0000 0.0000 -0.0000
vn 0.0000 0.0000 -1.0000
vn -1.0000 0.0000 -0.0000
# 6 vertex normals

vt 1.0000 0.0000 0.0000
vt 1.0000 1.0000 0.0000
vt 0.0000 1.0000 0.0000
vt 0.0000 0.0000 0.0000
# 4 texture coords

g Box005
usemtl wire_135006006
s 2
f 21/13/14 22/14/14 23/15/14 24/16/14 
s 4
f 25/16/15 26/13/15 27/14/15 28/15/15 
s 8
f 21/16/16 24/13/16 26/14/16 25/15/16 
s 16
f 24/16/17 23/13/17 27/14/17 26/15/17 
s 32
f 23/16/18 22/13/18 28/14/18 27/15/18 
s 64
f 22/16/19 21/13/19 25/14/19 28/15/19 
# 6 polygons

#
# object Box006
#

v  -807.0866 0.0000 -787.4016
v  -787.4016 0.0000 -787.4016
v  -787.4016 0.0000 -118.1103
v  -807.0866 0.0000 -118.1103
v  -807.0866 275.5905 -787.4016
v  -807.0866 275.5905 -118.1103
v  -787.4016 275.5905 -118.1103
v  -787.4016 275.5905 -787.4016
# 8 vertices

vn 0.0000 -1.0000 -0.0000
vn 0.0000 1.0000 -0.0000
vn -1.0000 0.0000 -0.0000
vn -0.0000 0.0000 1.0000
vn 1.0000 0.0000 0.0000
vn 0.0000 0.0000 -1.0000
# 6 vertex normals

vt 1.0000 0.0000 0.0000
vt 1.0000 1.0000 0.0000
vt 0.0000 1.0000 0.0000
vt 0.0000 0.0000 0.0000
# 4 texture coords

g Box006
usemtl wire_135006006
s 2
f 29/17/20 30/18/20 31/19/20 32/20/20 
s 4
f 33/20/21 34/17/21 35/18/21 36/19/21 
s 8
f 29/20/22 32/17/22 34/18/22 33/19/22 
s 16
f 32/20/23 31/17/23 35/18/23 34/19/23 
s 32
f 31/20/24 30/17/24 36/18/24 35/19/24 
s 64
f 30/20/25 29/17/25 33/18/25 36/19/25 
# 6 polygons

#
# object Box007
#

v  -807.0866 0.0000 118.1103
v  -787.4016 0.0000 118.1103
v  -787.4016 0.0000 787.4016
v  -807.0866 0.0000 787.4016
v  -807.0866 275.5905 118.1103
v  -807.0866 275.5905 787.4016
v  -787.4016 275.5905 787.4016
v  -787.4016 275.5905 118.1103
# 8 vertices

vn 0.0000 -1.0000 -0.0000
vn 0.0000 1.0000 -0.0000
vn -1.0000 0.0000 -0.0000
vn -0.0000 0.0000 1.0000
vn 1.0000 0.0000 0.0000
vn 0.0000 0.0000 -1.0000
# 6 vertex normals

vt 1.0000 0.0000 0.0000
vt 1.0000 1.0000 0.0000
vt 0.0000 1.0000 0.0000
vt 0.0000 0.0000 0.0000
# 4 texture coords

g Box007
usemtl wire_135006006
s 2
f 37/21/26 38/22/26 39/23/26 40/24/26 
s 4
f 41/24/27 42/21/27 43/22/27 44/23/27 
s 8
f 37/24/28 40/21/28 42/22/28 41/23/28 
s 16
f 40/24/29 39/21/29 43/22/29 42/23/29 
s 32
f 39/24/30 38/21/30 44/22/30 43/23/30 
s 64
f 38/24/31 37/21/31 41/22/31 44/23/31 
# 6 polygons

#
# object Box008
#

v  787.4016 0.0000 -787.4016
v  807.0865 0.0000 -787.4016
v  807.0865 0.0000 787.4016
v  787.4015 0.0000 787.4016
v  787.4016 275.5905 -787.4016
v  787.4015 275.5905 787.4016
v  807.0865 275.5905 787.4016
v  807.0865 275.5905 -787.4016
# 8 vertices

vn 0.0000 -1.0000 -0.0000
vn 0.0000 1.0000 -0.0000
vn -1.0000 0.0000 -0.0000
vn -0.0000 0.0000 1.0000
vn 1.0000 0.0000 0.0000
vn 0.0000 0.0000 -1.0000
# 6 vertex normals

vt 1.0000 0.0000 0.0000
vt 1.0000 1.0000 0.0000
vt 0.0000 1.0000 0.0000
vt 0.0000 0.0000 0.0000
# 4 texture coords

g Box008
usemtl wire_227153153
s 2
f 45/25/32 46/26/32 47/27/32 48/28/32 
s 4
f 49/28/33 50/25/33 51/26/33 52/27/33 
s 8
f 45/28/34 48/25/34 50/26/34 49/27/34 
s 16
f 48/28/35 47/25/35 51/26/35 50/27/35 
s 32
f 47/28/36 46/25/36 52/26/36 51/27/36 
s 64
f 46/28/37 45/25/37 49/26/37 52/27/37 
# 6 polygons

#
# object Box009
#

v  787.4015 0.0000 787.4016
v  787.4015 0.0000 807.0866
v  -787.4016 0.0000 807.0865
v  -787.4016 0.0000 787.4014
v  787.4015 275.5905 787.4016
v  -787.4016 275.5905 787.4014
v  -787.4016 275.5905 807.0865
v  787.4015 275.5905 807.0866
# 8 vertices

vn 0.0000 -1.0000 -0.0000
vn 0.0000 1.0000 -0.0000
vn 0.0000 0.0000 -1.0000
vn -1.0000 0.0000 -0.0000
vn -0.0000 0.0000 1.0000
vn 1.0000 0.0000 0.0000
# 6 vertex normals

vt 1.0000 0.0000 0.0000
vt 1.0000 1.0000 0.0000
vt 0.0000 1.0000 0.0000
vt 0.0000 0.0000 0.0000
# 4 texture coords

g Box009
usemtl wire_227153153
s 2
f 53/29/38 54/30/38 55/31/38 56/32/38 
s 4
f 57/32/39 58/29/39 59/30/39 60/31/39 
s 8
f 53/32/40 56/29/40 58/30/40 57/31/40 
s 16
f 56/32/41 55/29/41 59/30/41 58/31/41 
s 32
f 55/32/42 54/29/42 60/30/42 59/31/42 
s 64
f 54/32/43 53/29/43 57/30/43 60/31/43 
# 6 polygons

#
# object Box010
#

v  348.5753 0.0000 -663.2838
v  348.5753 0.0000 -410.4326
v  293.1663 0.0000 -410.4389
v  293.1663 0.0000 -663.2838
v  293.1663 275.5905 -410.4389
v  348.5753 275.5905 -410.4326
v  348.5753 275.5905 -663.2838
v  293.1663 275.5905 -663.2838
v  293.0899 0.0000 -313.1915
v  348.6056 0.0000 -313.1796
v  348.6056 275.5905 -313.1796
v  293.0899 275.5905 -313.1915
v  495.0446 0.0000 -410.4326
v  495.0446 275.5905 -410.4326
v  495.0446 275.5905 -313.1796
v  495.0446 0.0000 -313.1796
# 16 vertices

vn 0.0000 -1.0000 -0.0000
vn 0.0000 1.0000 -0.0000
vn -1.0000 0.0000 -0.0006
vn -1.0000 0.0000 -0.0000
vn -0.0001 0.0000 1.0000
vn 1.0000 0.0000 -0.0000
vn 0.0000 0.0000 -1.0000
vn -1.0000 0.0000 -0.0013
vn 1.0000 0.0000 0.0000
vn 0.0000 0.0000 1.0000
# 10 vertex normals

vt 1.0000 1.0000 0.0000
vt 0.5000 1.0000 0.0000
vt 0.5000 0.0000 0.0000
vt 1.0000 0.0000 0.0000
vt 0.0000 1.0000 0.0000
vt 0.0000 0.0000 0.0000
# 6 texture coords

g Box010
usemtl wire_008008136
s 2
f 61/33/44 62/34/44 63/35/44 64/36/44 
s 4
f 65/35/45 66/34/45 67/37/45 68/38/45 
s 8
f 63/35/46 65/34/46 68/37/47 64/38/47 
s 16
f 69/38/48 70/36/48 71/33/48 72/37/48 
s 32
f 73/35/49 74/34/49 75/37/49 76/38/49 
s 64
f 61/38/50 64/36/50 68/33/50 67/37/50 
s 2
f 70/37/44 69/38/44 63/35/44 62/34/44 
s 4
f 72/36/45 71/33/45 66/34/45 65/35/45 
s 8
f 69/36/51 72/33/51 65/34/46 63/35/46 
s 32
f 61/36/52 67/33/52 66/34/52 62/35/52 
s off
f 66/34/45 71/37/45 75/37/45 74/34/45 
f 71/37/53 70/38/53 76/38/53 75/37/53 
f 70/38/44 62/35/44 73/35/44 76/38/44 
f 62/35/50 66/34/50 74/34/50 73/35/50 
# 14 polygons

#
# object Box011
#

v  -625.6757 0.0000 -399.3099
v  -451.8627 0.0000 -399.3099
v  -451.8670 0.0000 -298.9493
v  -625.6757 0.0000 -298.9493
v  -451.8670 275.5905 -298.9493
v  -451.8627 275.5905 -399.3099
v  -625.6757 275.5905 -399.3099
v  -625.6757 275.5905 -298.9493
v  -385.0179 0.0000 -298.8109
v  -385.0098 0.0000 -399.3647
v  -385.0098 275.5905 -399.3647
v  -385.0179 275.5905 -298.8109
v  -451.8627 0.0000 -664.6050
v  -451.8627 275.5905 -664.6050
v  -385.0098 275.5905 -664.6050
v  -385.0098 0.0000 -664.6050
# 16 vertices

vn 0.0000 -1.0000 -0.0000
vn 0.0000 1.0000 -0.0000
vn -0.0006 0.0000 1.0000
vn 0.0000 0.0000 1.0000
vn 1.0000 0.0000 0.0001
vn -0.0000 0.0000 -1.0000
vn -1.0000 0.0000 -0.0000
vn -0.0013 0.0000 1.0000
vn 0.0000 0.0000 -1.0000
vn 1.0000 0.0000 -0.0000
# 10 vertex normals

vt 1.0000 1.0000 0.0000
vt 0.5000 1.0000 0.0000
vt 0.5000 0.0000 0.0000
vt 1.0000 0.0000 0.0000
vt 0.0000 1.0000 0.0000
vt 0.0000 0.0000 0.0000
# 6 texture coords

g Box011
usemtl wire_008008136
s 2
f 77/39/54 78/40/54 79/41/54 80/42/54 
s 4
f 81/41/55 82/40/55 83/43/55 84/44/55 
s 8
f 79/41/56 81/40/56 84/43/57 80/44/57 
s 16
f 85/44/58 86/42/58 87/39/58 88/43/58 
s 32
f 89/41/59 90/40/59 91/43/59 92/44/59 
s 64
f 77/44/60 80/42/60 84/39/60 83/43/60 
s 2
f 86/43/54 85/44/54 79/41/54 78/40/54 
s 4
f 88/42/55 87/39/55 82/40/55 81/41/55 
s 8
f 85/42/61 88/39/61 81/40/56 79/41/56 
s 32
f 77/42/62 83/39/62 82/40/62 78/41/62 
s off
f 82/40/55 87/43/55 91/43/55 90/40/55 
f 87/43/63 86/44/63 92/44/63 91/43/63 
f 86/44/54 78/41/54 89/41/54 92/44/54 
f 78/41/60 82/40/60 90/40/60 89/41/60 
# 14 polygons

#
# object Box012
#

v  -369.2885 0.0000 342.3638
v  -555.4283 0.0000 342.3638
v  -555.4238 0.0000 242.0033
v  -369.2885 0.0000 242.0033
v  -555.4238 275.5905 242.0033
v  -555.4283 275.5905 342.3638
v  -369.2885 275.5905 342.3638
v  -369.2885 275.5905 242.0033
v  -627.0138 0.0000 241.8649
v  -627.0226 0.0000 342.4187
v  -627.0226 275.5905 342.4187
v  -627.0138 275.5905 241.8649
v  -555.4283 0.0000 607.6589
v  -555.4283 275.5905 607.6589
v  -627.0225 275.5905 607.6590
v  -627.0225 0.0000 607.6590
# 16 vertices

vn 0.0000 -1.0000 -0.0000
vn 0.0000 1.0000 -0.0000
vn 0.0006 0.0000 -1.0000
vn -0.0000 0.0000 -1.0000
vn -1.0000 0.0000 -0.0001
vn 0.0000 0.0000 1.0000
vn 1.0000 0.0000 -0.0000
vn 0.0013 0.0000 -1.0000
vn -1.0000 0.0000 0.0000
vn 1.0000 0.0000 0.0000
# 10 vertex normals

vt 1.0000 1.0000 0.0000
vt 0.5000 1.0000 0.0000
vt 0.5000 0.0000 0.0000
vt 1.0000 0.0000 0.0000
vt 0.0000 1.0000 0.0000
vt 0.0000 0.0000 0.0000
# 6 texture coords

g Box012
usemtl wire_008008136
s 2
f 93/45/64 94/46/64 95/47/64 96/48/64 
s 4
f 97/47/65 98/46/65 99/49/65 100/50/65 
s 8
f 95/47/66 97/46/66 100/49/67 96/50/67 
s 16
f 101/50/68 102/48/68 103/45/68 104/49/68 
s 32
f 105/47/69 106/46/69 107/49/69 108/50/69 
s 64
f 93/50/70 96/48/70 100/45/70 99/49/70 
s 2
f 102/49/64 101/50/64 95/47/64 94/46/64 
s 4
f 104/48/65 103/45/65 98/46/65 97/47/65 
s 8
f 101/48/71 104/45/71 97/46/66 95/47/66 
s 32
f 93/48/69 99/45/69 98/46/69 94/47/69 
s off
f 98/46/65 103/49/65 107/49/65 106/46/65 
f 103/49/72 102/50/72 108/50/72 107/49/72 
f 102/50/64 94/47/64 105/47/64 108/50/64 
f 94/47/73 98/46/73 106/46/73 105/47/73 
# 14 polygons

#
# object Box013
#

v  472.9451 0.0000 595.3506
v  472.9450 0.0000 311.0036
v  541.5516 0.0000 311.0106
v  541.5516 0.0000 595.3506
v  541.5516 275.5905 311.0106
v  472.9450 275.5905 311.0036
v  472.9451 275.5905 595.3506
v  541.5516 275.5905 595.3506
v  541.6462 0.0000 201.6498
v  472.9075 0.0000 201.6364
v  472.9075 275.5905 201.6364
v  541.6462 275.5905 201.6498
v  291.5891 0.0000 311.0036
v  291.5891 275.5905 311.0036
v  291.5891 275.5905 201.6365
v  291.5891 0.0000 201.6365
# 16 vertices

vn 0.0000 -1.0000 -0.0000
vn 0.0000 1.0000 -0.0000
vn 1.0000 0.0000 0.0006
vn 1.0000 0.0000 -0.0000
vn 0.0001 0.0000 -1.0000
vn -1.0000 0.0000 0.0000
vn 0.0000 0.0000 1.0000
vn 1.0000 0.0000 0.0013
vn -0.0000 0.0000 -1.0000
vn -0.0000 0.0000 1.0000
# 10 vertex normals

vt 1.0000 1.0000 0.0000
vt 0.5000 1.0000 0.0000
vt 0.5000 0.0000 0.0000
vt 1.0000 0.0000 0.0000
vt 0.0000 1.0000 0.0000
vt 0.0000 0.0000 0.0000
# 6 texture coords

g Box013
usemtl wire_008008136
s 2
f 109/51/74 110/52/74 111/53/74 112/54/74 
s 4
f 113/53/75 114/52/75 115/55/75 116/56/75 
s 8
f 111/53/76 113/52/76 116/55/77 112/56/77 
s 16
f 117/56/78 118/54/78 119/51/78 120/55/78 
s 32
f 121/53/79 122/52/79 123/55/79 124/56/79 
s 64
f 109/56/80 112/54/80 116/51/80 115/55/80 
s 2
f 118/55/74 117/56/74 111/53/74 110/52/74 
s 4
f 120/54/75 119/51/75 114/52/75 113/53/75 
s 8
f 117/54/81 120/51/81 113/52/76 111/53/76 
s 32
f 109/54/79 115/51/79 114/52/79 110/53/79 
s off
f 114/52/75 119/55/75 123/55/75 122/52/75 
f 119/55/82 118/56/82 124/56/82 123/55/82 
f 118/56/74 110/53/74 121/53/74 124/56/74 
f 110/53/83 114/52/83 122/52/83 121/53/83 
# 14 polygons

#
# object StraightStair001
#

v  -118.1102 180.4463 -1089.9558
v  -118.1102 0.0001 -814.9065
v  -118.1102 164.0421 -1062.4508
v  -118.1102 180.4463 -1062.4508
v  118.1103 164.0421 -1062.4508
v  118.1103 0.0001 -814.9065
v  118.1103 180.4463 -1089.9557
v  118.1103 180.4463 -1062.4508
v  -118.1102 147.6379 -1034.9459
v  -118.1102 164.0421 -1034.9459
v  118.1103 147.6379 -1034.9458
v  118.1103 164.0421 -1034.9458
v  -118.1102 131.2337 -1007.4410
v  -118.1102 147.6379 -1007.4410
v  118.1103 131.2337 -1007.4410
v  118.1103 147.6379 -1007.4409
v  -118.1102 114.8295 -979.9360
v  -118.1102 131.2337 -979.9360
v  118.1103 114.8295 -979.9360
v  118.1103 131.2337 -979.9360
v  -118.1102 98.4253 -952.4312
v  -118.1102 114.8295 -952.4312
v  118.1103 98.4253 -952.4311
v  118.1103 114.8295 -952.4311
v  -118.1102 82.0211 -924.9262
v  -118.1102 98.4253 -924.9262
v  118.1103 82.0211 -924.9261
v  118.1103 98.4253 -924.9261
v  -118.1102 65.6169 -897.4213
v  -118.1102 82.0211 -897.4213
v  118.1103 65.6169 -897.4213
v  118.1103 82.0211 -897.4213
v  -118.1102 49.2127 -869.9164
v  -118.1102 65.6169 -869.9164
v  118.1103 49.2127 -869.9163
v  118.1103 65.6169 -869.9163
v  -118.1102 32.8085 -842.4114
v  -118.1102 49.2127 -842.4114
v  118.1103 32.8085 -842.4114
v  118.1103 49.2127 -842.4114
v  -118.1102 16.4043 -814.9065
v  -118.1102 32.8085 -814.9065
v  118.1103 16.4043 -814.9065
v  118.1103 32.8085 -814.9065
v  -118.1102 0.0001 -787.4016
v  -118.1102 16.4043 -787.4016
v  118.1103 0.0001 -787.4016
v  118.1103 16.4043 -787.4016
v  -118.1102 164.0421 -1089.9558
v  118.1103 164.0421 -1089.9557
# 50 vertices

vn -1.0000 0.0000 -0.0000
vn 1.0000 0.0000 0.0000
vn 0.0000 1.0000 -0.0000
vn -0.0000 0.0000 1.0000
vn -0.0000 -0.0000 1.0000
vn 0.0000 -1.0000 -0.0000
vn 0.0000 -0.8589 -0.5122
vn 0.0000 0.0000 -1.0000
# 8 vertex normals

g StraightStair001
usemtl wire_229154215
s 1
f 125//84 126//84 127//84 128//84 
f 129//85 130//85 131//85 132//85 
f 127//84 126//84 133//84 134//84 
f 135//85 130//85 129//85 136//85 
f 133//84 126//84 137//84 138//84 
f 139//85 130//85 135//85 140//85 
f 137//84 126//84 141//84 142//84 
f 143//85 130//85 139//85 144//85 
f 141//84 126//84 145//84 146//84 
f 147//85 130//85 143//85 148//85 
f 145//84 126//84 149//84 150//84 
f 151//85 130//85 147//85 152//85 
f 149//84 126//84 153//84 154//84 
f 155//85 130//85 151//85 156//85 
f 153//84 126//84 157//84 158//84 
f 159//85 130//85 155//85 160//85 
f 157//84 126//84 161//84 162//84 
f 163//85 130//85 159//85 164//85 
f 161//84 126//84 165//84 166//84 
f 167//85 130//85 163//85 168//85 
f 165//84 126//84 169//84 170//84 
f 171//85 130//85 167//85 172//85 
f 126//84 125//84 173//84 
f 130//85 174//85 131//85 
s 2
f 125//86 128//86 132//86 131//86 
s 4
f 128//87 127//87 129//87 132//87 
s 2
f 127//86 134//86 136//86 129//86 
s 4
f 134//87 133//87 135//87 136//87 
s 2
f 133//86 138//86 140//86 135//86 
s 4
f 138//88 137//88 139//88 140//88 
s 2
f 137//86 142//86 144//86 139//86 
s 4
f 142//87 141//87 143//87 144//87 
s 2
f 141//86 146//86 148//86 143//86 
s 4
f 146//88 145//88 147//88 148//88 
s 2
f 145//86 150//86 152//86 147//86 
s 4
f 150//87 149//87 151//87 152//87 
s 2
f 149//86 154//86 156//86 151//86 
s 4
f 154//88 153//88 155//88 156//88 
s 2
f 153//86 158//86 160//86 155//86 
s 4
f 158//87 157//87 159//87 160//87 
s 2
f 157//86 162//86 164//86 159//86 
s 4
f 162//87 161//87 163//87 164//87 
s 2
f 161//86 166//86 168//86 163//86 
s 4
f 166//87 165//87 167//87 168//87 
s 2
f 165//86 170//86 172//86 167//86 
s 4
f 170//87 169//87 171//87 172//87 
s 8
f 169//89 126//89 130//89 171//89 
s 2
f 126//90 173//90 174//90 130//90 
s 4
f 173//91 125//91 131//91 174//91 
# 47 polygons - 2 triangles

#
# object LTypeStair001
#

v  539.3259 49.2126 556.4966
v  539.3259 57.4147 556.4966
v  539.3223 57.4147 539.8992
v  539.3259 41.0105 556.4966
v  539.3223 65.6168 539.8992
v  539.3185 65.6168 523.3018
v  539.3185 73.8189 523.3018
v  539.3148 73.8189 506.7043
v  539.3148 82.0210 506.7043
v  539.3110 82.0210 490.1069
v  539.3110 90.2231 490.1069
v  539.3074 90.2231 473.5096
v  539.3074 82.0210 473.5096
v  539.3297 32.8084 573.0939
v  539.3297 49.2126 573.0939
v  803.3734 41.0105 556.4374
v  803.3548 82.0210 473.4503
v  803.3548 90.2231 473.4503
v  803.3585 82.0210 490.0477
v  803.3585 90.2231 490.0477
v  803.3622 82.0210 506.6451
v  803.3622 73.8189 506.6451
v  803.3660 73.8189 523.2426
v  803.3660 65.6168 523.2426
v  803.3697 65.6168 539.8400
v  803.3697 57.4147 539.8400
v  803.3734 57.4147 556.4373
v  803.3734 49.2126 556.4374
v  803.3771 32.8084 573.0347
v  803.3771 49.2126 573.0347
v  489.5424 8.2021 595.3468
v  489.5424 16.4042 595.3468
v  506.1399 16.4042 595.3431
v  489.5424 -0.0000 595.3468
v  506.1399 24.6063 595.3431
v  522.7372 24.6063 595.3394
v  522.7372 32.8084 595.3394
v  539.3347 32.8084 595.3356
v  539.3347 24.6063 595.3356
v  472.9451 -0.0000 595.3505
v  472.9451 8.2021 595.3505
v  489.6017 -0.0000 805.3577
v  539.3939 24.6063 805.3465
v  539.3939 32.8084 805.3465
v  522.7964 24.6063 805.3502
v  522.7964 32.8084 805.3502
v  506.1991 24.6063 805.3539
v  506.1991 16.4042 805.3539
v  489.6017 16.4042 805.3577
v  489.6017 8.2021 805.3577
v  473.0043 -0.0000 805.3613
v  473.0043 8.2021 805.3613
v  539.3347 41.0105 595.3356
v  539.3939 41.0105 805.3465
v  803.4413 41.0105 805.2873
v  803.3771 41.0105 573.0347
v  539.3297 41.0105 573.0939
v  803.4413 32.8084 805.2873
# 58 vertices

vn -1.0000 0.0000 0.0002
vn -1.0000 -0.0000 0.0002
vn 1.0000 0.0000 -0.0002
vn 0.0000 1.0000 -0.0000
vn 0.0002 0.0000 1.0000
vn 0.0002 -0.0000 1.0000
vn -0.0001 -0.8965 -0.4430
vn -0.0002 0.0000 -1.0000
vn -1.0000 0.0000 0.0003
vn 0.0000 -1.0000 -0.0000
vn 0.4430 -0.8965 -0.0001
vn 1.0000 0.0000 -0.0003
# 12 vertex normals

g LTypeStair001
usemtl wire_225143087
s 1
f 175//92 176//92 177//92 178//92 
f 177//92 179//92 180//92 178//92 
f 180//92 181//92 182//92 178//92 
f 182//92 183//92 184//93 178//92 
f 184//93 185//92 186//93 178//92 
f 186//93 187//92 178//92 
f 175//92 178//92 188//92 189//92 
f 190//94 191//94 192//94 193//94 
f 192//94 194//94 193//94 
f 193//94 195//94 196//94 190//94 
f 196//94 197//94 198//94 190//94 
f 198//94 199//94 200//94 190//94 
f 200//94 201//94 202//94 190//94 
f 203//94 190//94 202//94 204//94 
s 2
f 194//95 192//95 186//95 185//95 
s 4
f 193//96 194//96 185//96 184//96 
s 2
f 195//95 193//95 184//95 183//95 
s 4
f 196//96 195//96 183//96 182//96 
s 2
f 197//95 196//95 182//95 181//95 
s 4
f 198//96 197//96 181//96 180//96 
s 2
f 199//95 198//95 180//95 179//95 
s 4
f 200//97 199//97 179//97 177//97 
s 2
f 201//95 200//95 177//95 176//95 
s 4
f 202//96 201//96 176//96 175//96 
s 2
f 204//95 202//95 175//95 189//95 
s 4
f 203//96 204//96 189//96 188//96 
s 8
f 190//98 203//98 188//98 178//98 
s 2
f 191//98 190//98 178//98 187//98 
s 4
f 192//99 191//99 187//99 186//99 
s 1
f 205//99 206//99 207//99 208//99 
f 207//99 209//99 210//99 208//99 
f 210//99 211//99 212//99 208//99 
f 212//99 213//99 208//99 
f 205//99 208//99 214//99 215//99 
f 216//96 217//96 218//96 219//96 
f 218//96 220//96 219//96 
f 219//96 221//96 222//96 216//96 
f 222//96 223//96 224//96 216//96 
f 225//96 216//96 224//96 226//96 
s 2
f 220//95 218//95 212//95 211//95 
s 4
f 219//100 220//100 211//100 210//100 
s 2
f 221//95 219//95 210//95 209//95 
s 4
f 222//100 221//100 209//100 207//100 
s 2
f 223//95 222//95 207//95 206//95 
s 4
f 224//100 223//100 206//100 205//100 
s 2
f 226//95 224//95 205//95 215//95 
s 4
f 225//100 226//100 215//100 214//100 
s 8
f 216//101 225//101 214//101 208//101 
s 2
f 217//102 216//102 208//102 213//102 
s 4
f 218//103 217//103 213//103 212//103 
s 1
f 227//95 228//95 229//95 230//95 
f 227//95 230//95 231//95 
f 212//101 188//101 203//101 232//101 
f 212//101 232//101 218//101 
s 2
f 212//100 218//100 228//100 227//100 
s 4
f 218//96 232//96 229//96 228//96 
s 8
f 232//103 203//103 230//103 229//103 
s 16
f 203//99 188//99 231//99 230//99 
s 32
f 188//92 212//92 227//92 231//92 
# 53 polygons - 6 triangles

#
# object Box014
#

v  788.9899 90.2231 202.4185
v  788.9899 100.0657 202.4185
v  788.9899 100.0657 473.5096
v  788.9899 90.2231 473.5096
v  539.3074 90.2231 202.4185
v  539.3074 90.2231 473.5095
v  539.3074 100.0656 473.5095
v  539.3074 100.0656 202.4185
# 8 vertices

vn 1.0000 0.0000 0.0000
vn -1.0000 -0.0000 -0.0000
vn 0.0000 -1.0000 0.0000
vn -0.0000 0.0000 1.0000
vn -0.0000 1.0000 -0.0000
vn 0.0000 0.0000 -1.0000
# 6 vertex normals

vt 1.0000 0.0000 0.0000
vt 1.0000 1.0000 0.0000
vt 0.0000 1.0000 0.0000
vt 0.0000 0.0000 0.0000
# 4 texture coords

g Box014
usemtl wire_166229229
s 2
f 233/57/104 234/58/104 235/59/104 236/60/104 
s 4
f 237/60/105 238/57/105 239/58/105 240/59/105 
s 8
f 233/60/106 236/57/106 238/58/106 237/59/106 
s 16
f 236/60/107 235/57/107 239/58/107 238/59/107 
s 32
f 235/60/108 234/57/108 240/58/108 239/59/108 
s 64
f 234/60/109 233/57/109 237/58/109 240/59/109 
# 6 polygons

