# 3ds Max Wavefront OBJ Exporter v0.97b - (c)2007 guruware
# File Created: 09.11.2015 21:24:22

mtllib SmallRoof_Straight.mtl

#
# object Object003
#

v  -232.8678 122.0189 -900.1202
v  -273.4186 84.7188 -899.9025
v  -273.4186 84.7188 -824.4688
v  -232.8739 122.0189 -824.6865
v  -192.0715 84.5926 -900.4665
v  -192.0715 84.5926 -825.0328
v  -272.7380 83.9862 -824.4688
v  -272.7380 83.9862 -899.9025
v  -232.8701 121.0189 -900.1202
v  -232.8701 121.0189 -824.6865
v  -192.7510 83.8589 -900.4665
v  -192.7510 83.8589 -825.0328
# 12 vertices

vn -0.6770 0.7360 -0.0000
vn 0.6760 0.7369 0.0000
vn 0.6806 -0.7327 -0.0000
vn -0.6795 -0.7336 -0.0000
vn 0.0029 0.0027 1.0000
vn 0.0070 0.0000 1.0000
vn 0.0069 0.0001 1.0000
vn -0.0070 0.0000 -1.0000
vn -0.0029 -0.0027 -1.0000
vn -0.0030 -0.0027 -1.0000
vn -0.0070 0.0001 -1.0000
vn -0.7327 -0.6806 -0.0000
vn 0.0046 -0.0043 1.0000
vn 0.0047 -0.0043 1.0000
vn 0.7336 -0.6795 0.0000
vn -0.0046 0.0042 -1.0000
vn -0.0046 0.0043 -1.0000
# 17 vertex normals

vt 0.5000 1.0000 0.0000
vt 0.0000 1.0000 0.0000
vt 1.0000 1.0000 0.0000
# 3 texture coords

g Object003
usemtl wire_135059008
s off
f 1/1/1 2/2/1 3/2/1 4/1/1 
f 5/3/2 1/1/2 4/1/2 6/3/2 
f 7/2/3 8/2/3 9/1/3 10/1/3 
f 10/1/4 9/1/4 11/3/4 12/3/4 
s 1
f 7/2/5 10/1/6 4/1/7 3/2/5 
f 9/1/8 8/2/9 2/2/10 1/1/11 
s 2
f 8/2/12 7/2/12 3/2/12 2/2/12 
s 1
f 10/1/6 12/3/13 6/3/14 4/1/7 
s 2
f 12/3/15 11/3/15 5/3/15 6/3/15 
s 1
f 11/3/16 9/1/8 1/1/11 5/3/17 
# 10 polygons

