# 3ds Max Wavefront OBJ Exporter v0.97b - (c)2007 guruware
# File Created: 09.11.2015 21:24:09

mtllib SmallRoof_Corner.mtl

#
# object Floor_Ceramic_Centre051
#

v  -273.4190 84.7185 -785.0974
v  -233.1545 121.9407 -784.6295
v  -232.8669 122.0189 -824.6851
v  -273.4186 84.7188 -824.4688
v  -272.8349 84.9242 -744.9489
v  -232.6866 84.7184 -744.3647
v  -193.0985 122.0189 -784.9172
v  -192.3646 84.6964 -825.4192
v  -193.3146 84.7186 -744.3649
v  -232.8701 121.0189 -824.6865
v  -232.9721 120.9745 -784.8117
v  -272.7380 83.9862 -785.0988
v  -272.7380 83.9862 -824.4688
v  -232.6851 83.9862 -745.0458
v  -272.4451 84.0899 -745.3387
v  -192.7510 83.8589 -825.0328
v  -193.0974 121.0189 -784.9137
v  -193.3150 83.9862 -745.0458
# 18 vertices

vn -0.6783 0.7348 0.0023
vn -0.1832 0.9660 0.1824
vn 0.0079 1.0000 0.0029
vn -0.6770 0.7360 0.0000
vn -0.3894 0.8347 0.3894
vn -0.0030 0.7343 0.6788
vn -0.0020 1.0000 -0.0086
vn 0.3835 0.8401 -0.3835
vn 0.0014 0.7350 0.6781
vn -0.0033 -1.0000 -0.0014
vn 0.1824 -0.9662 -0.1822
vn 0.6809 -0.7323 -0.0014
vn 0.6806 -0.7327 -0.0000
vn 0.0015 -0.7322 -0.6811
vn 0.3898 -0.8343 -0.3898
vn -0.3864 -0.8375 0.3864
vn 0.0011 -1.0000 0.0035
vn -0.0004 -0.7324 -0.6809
vn -0.0070 0.0014 -1.0000
vn -0.0029 -0.0027 -1.0000
vn -0.0030 -0.0027 -1.0000
vn -0.0099 -0.0017 -0.9999
vn -0.7327 -0.6806 -0.0000
vn -0.7338 -0.6793 0.0070
vn -0.7323 -0.6809 0.0071
vn -0.9046 -0.4263 0.0078
vn -0.9018 -0.4321 0.0079
vn -0.0152 -0.4326 0.9015
vn -0.0036 -0.6811 0.7322
vn -0.0036 -0.6794 0.7337
vn -0.0153 -0.4291 0.9031
vn 0.9999 0.0000 0.0128
vn 0.9144 -0.2930 0.2793
vn 0.9156 -0.2910 0.2776
vn 0.9999 0.0011 0.0118
vn 0.0000 -0.6809 0.7324
vn 1.0000 -0.0029 0.0027
vn 1.0000 -0.0029 0.0026
vn -0.2816 -0.2877 -0.9154
vn -0.2842 -0.2904 -0.9137
# 40 vertex normals

vt 0.0000 0.5000 0.0000
vt 0.5000 0.5000 0.0000
vt 0.5000 1.0000 0.0000
vt 0.0000 1.0000 0.0000
vt 0.0000 0.0000 0.0000
vt 0.5000 0.0000 0.0000
vt 1.0000 0.5000 0.0000
vt 1.0000 1.0000 0.0000
vt 1.0000 0.0000 0.0000
# 9 texture coords

g Floor_Ceramic_Centre051
usemtl wire_135059008
s 1
f 1/1/1 2/2/2 3/3/3 4/4/4 
f 5/5/5 6/6/6 2/2/2 1/1/1 
f 7/7/7 8/8/8 2/2/2 
f 9/9/9 7/7/7 2/2/2 6/6/6 
f 8/8/8 3/3/3 2/2/2 
f 10/3/10 11/2/11 12/1/12 13/4/13 
f 11/2/11 14/6/14 15/5/15 12/1/12 
f 11/2/11 16/8/16 17/7/17 
f 11/2/11 17/7/17 18/9/18 14/6/14 
f 11/2/11 10/3/10 16/8/16 
s 2
f 10/3/19 13/4/20 4/4/21 3/3/22 
s 4
f 13/4/23 12/1/24 1/1/25 4/4/23 
f 12/1/24 15/5/26 5/5/27 1/1/25 
s 2
f 15/5/28 14/6/29 6/6/30 5/5/31 
s 4
f 17/7/32 16/8/33 8/8/34 7/7/35 
s 2
f 14/6/29 18/9/36 9/9/36 6/6/30 
s 4
f 18/9/37 17/7/32 7/7/35 9/9/38 
s 2
f 16/8/39 10/3/19 3/3/22 8/8/40 
# 14 polygons - 4 triangles

